<?xml version="1.0" encoding="UTF-8" standalone="no"?>
<!-- Created with Inkscape (http://www.inkscape.org/) -->

<svg
   width="200"
   height="200"
   viewBox="0 0 40 40"
   version="1.1"
   id="svg1"
   inkscape:version="1.3 (0e150ed6c4, 2023-07-21)"
   sodipodi:docname="plus.svg"
   xmlns:inkscape="http://www.inkscape.org/namespaces/inkscape"
   xmlns:sodipodi="http://sodipodi.sourceforge.net/DTD/sodipodi-0.dtd"
   xmlns="http://www.w3.org/2000/svg"
   xmlns:svg="http://www.w3.org/2000/svg">
  <sodipodi:namedview
     id="namedview1"
     pagecolor="#ffffff"
     bordercolor="#000000"
     borderopacity="0.25"
     inkscape:showpageshadow="2"
     inkscape:pageopacity="0.0"
     inkscape:pagecheckerboard="false"
     inkscape:deskcolor="#d1d1d1"
     inkscape:document-units="px"
     showborder="true"
     shape-rendering="crispEdges"
     inkscape:zoom="4.98"
     inkscape:cx="100.1004"
     inkscape:cy="100"
     inkscape:window-width="1705"
     inkscape:window-height="1192"
     inkscape:window-x="300"
     inkscape:window-y="92"
     inkscape:window-maximized="0"
     inkscape:current-layer="layer1" />
  <defs
     id="defs1">
    <inkscape:path-effect
       effect="fillet_chamfer"
       id="path-effect23"
       is_visible="true"
       lpeversion="1"
       nodesatellites_param="F,0,0,1,0,1,0,1 @ F,0,0,1,0,1,0,1 @ F,0,0,1,0,1,0,1 @ F,0,0,1,0,1,0,1 @ F,0,0,1,0,1,0,1 @ F,0,0,1,0,1,0,1 @ F,0,0,1,0,1,0,1 @ F,0,0,1,0,1,0,1 @ F,0,0,1,0,1,0,1 @ F,0,0,1,0,1,0,1 @ F,0,0,1,0,1,0,1 @ F,0,0,1,0,1,0,1 @ F,0,0,1,0,1,0,1 @ F,0,0,1,0,1,0,1 @ F,0,0,1,0,1,0,1 @ F,0,0,1,0,1,0,1 @ F,0,0,1,0,1,0,1 @ F,0,0,1,0,1,0,1 @ F,0,0,1,0,1,0,1 @ F,0,0,1,0,1,0,1 @ F,0,0,1,0,1,0,1 @ F,0,0,1,0,1,0,1 @ F,0,0,1,0,1,0,1 @ F,0,0,1,0,1,0,1 @ F,0,0,1,0,1,0,1 @ F,0,0,1,0,1,0,1 @ F,0,0,1,0,1,0,1 @ F,0,0,1,0,1,0,1 @ F,0,0,1,0,1,0,1 @ F,0,0,1,0,1,0,1 @ F,0,0,1,0,1,0,1 @ F,0,0,1,0,1,0,1 @ F,0,0,1,0,1,0,1 @ F,0,0,1,0,1,0,1 @ F,0,0,1,0,1,0,1 @ F,0,0,1,0,1,0,1 @ F,0,0,1,0,1,0,1 @ F,0,0,1,0,1,0,1 @ F,0,0,1,0,1,0,1 @ F,0,0,1,0,1,0,1 @ F,0,0,1,0,1,0,1 @ F,0,0,1,0,1,0,1 @ F,0,0,1,0,1,0,1 @ F,0,0,1,0,1,0,1 @ F,0,0,1,0,1,0,1 @ F,0,0,1,0,1,0,1 @ F,0,0,1,0,1,0,1 @ F,0,0,1,0,1,0,1 @ F,0,0,1,0,1,0,1 @ F,0,0,1,0,1,0,1 @ F,0,0,1,0,1,0,1 @ F,0,0,1,0,1,0,1 @ F,0,0,1,0,1,0,1 @ F,0,0,1,0,1,0,1 @ F,0,0,1,0,1,0,1 @ F,0,0,1,0,1,0,1 @ F,0,0,1,0,1,0,1 @ F,0,0,1,0,1,0,1 @ F,0,0,1,0,1,0,1 @ F,0,0,1,0,1,0,1 @ F,0,0,1,0,1,0,1 @ F,0,0,1,0,1,0,1 @ F,0,0,1,0,1,0,1 @ F,0,0,1,0,1,0,1 @ F,0,0,1,0,1,0,1 @ F,0,0,1,0,1,0,1 @ F,0,0,1,0,1,0,1 @ F,0,0,1,0,1,0,1 @ F,0,0,1,0,1,0,1 @ F,0,0,1,0,1,0,1"
       radius="1"
       unit="px"
       method="auto"
       mode="F"
       chamfer_steps="1"
       flexible="false"
       use_knot_distance="true"
       apply_no_radius="true"
       apply_with_radius="true"
       only_selected="false"
       hide_knots="false" />
    <inkscape:path-effect
       effect="fillet_chamfer"
       id="path-effect6"
       is_visible="true"
       lpeversion="1"
       nodesatellites_param="F,0,0,1,0,1,0,1 @ F,0,0,1,0,1,0,1 @ F,0,0,1,0,1,0,1 @ F,0,0,1,0,1,0,1"
       radius="1"
       unit="px"
       method="auto"
       mode="F"
       chamfer_steps="1"
       flexible="false"
       use_knot_distance="true"
       apply_no_radius="true"
       apply_with_radius="true"
       only_selected="false"
       hide_knots="false" />
    <inkscape:path-effect
       effect="fillet_chamfer"
       id="path-effect5"
       is_visible="true"
       lpeversion="1"
       nodesatellites_param="F,0,0,1,0,1,0,1 @ F,0,0,1,0,1,0,1 @ F,0,0,1,0,1,0,1 @ F,0,0,1,0,1,0,1"
       radius="1"
       unit="px"
       method="auto"
       mode="F"
       chamfer_steps="1"
       flexible="false"
       use_knot_distance="true"
       apply_no_radius="true"
       apply_with_radius="true"
       only_selected="false"
       hide_knots="false" />
  </defs>
  <g
     inkscape:label="Ebene 1"
     inkscape:groupmode="layer"
     id="layer1">
    <path
       id="path23"
       style="fill:#000000;stroke:#000000;stroke-width:0.755906"
       d="m 16.821094,1.7488281 c -0.257813,0.080469 -0.257813,0.080469 -0.257813,0.080469 -0.233593,0.1277343 -0.233593,0.1277343 -0.233593,0.1277343 -0.204297,0.1683594 -0.204297,0.1683594 -0.204297,0.1683594 -0.16836,0.2042969 -0.16836,0.2042969 -0.16836,0.2042969 -0.127734,0.2335938 -0.127734,0.2335938 -0.127734,0.2335938 -0.08047,0.2578125 -0.08047,0.2578125 -0.08047,0.2578125 -0.02812,0.2765624 -0.02812,0.2765624 -0.02812,0.2765624 V 15.098437 a 1,1 135 0 1 -1,1 H 4.0984375 c -0.5522847,0 -1.2524167,-0.009 -1.5,0.133985 -0.3660156,0.366015 -0.3660156,0.366015 -0.3660156,0.366015 -0.1339844,0.5 -0.1339844,0.5 -0.1339844,0.5 v 4.803126 c 0,0.552285 -0.00896,1.252417 0.1339844,1.5 0.3660156,0.366015 0.3660156,0.366015 0.3660156,0.366015 0.5,0.133985 0.5,0.133985 0.5,0.133985 H 14.720703 a 1,1 45 0 1 1,1 l 0,11.000781 c 0,0.552285 -0.0029,1.126193 0.02812,1.276562 0.08047,0.257813 0.08047,0.257813 0.08047,0.257813 0.127734,0.233594 0.127734,0.233594 0.127734,0.233594 0.16836,0.204296 0.16836,0.204296 0.16836,0.204296 0.204297,0.16836 0.204297,0.16836 0.204297,0.16836 0.233593,0.127734 0.233593,0.127734 0.233593,0.127734 0.257813,0.08047 0.257813,0.08047 0.257813,0.08047 0.276562,0.02813 0.276562,0.02813 0.276562,0.02813 h 4.804688 c 0.552285,0 1.126196,0.0029 1.276562,-0.02813 0.257813,-0.08047 0.257813,-0.08047 0.257813,-0.08047 0.233594,-0.127734 0.233594,-0.127734 0.233594,-0.127734 0.204296,-0.16836 0.204296,-0.16836 0.204296,-0.16836 0.16836,-0.204296 0.16836,-0.204296 0.16836,-0.204296 0.127734,-0.233594 0.127734,-0.233594 0.127734,-0.233594 0.08047,-0.257813 0.08047,-0.257813 0.08047,-0.257813 0.02812,-0.276562 0.02812,-0.276562 0.02812,-0.276562 V 24.901563 a 1,1 135 0 1 1,-1 h 10.622266 c 0.552285,0 1.252417,0.009 1.5,-0.133985 0.366015,-0.366015 0.366015,-0.366015 0.366015,-0.366015 0.133985,-0.5 0.133985,-0.5 0.133985,-0.5 v -4.803126 c 0,-1.019531 0,-1.019531 0,-1.019531 -7.82e-4,-0.01953 -7.82e-4,-0.01953 -7.82e-4,-0.01953 C 37.9,17.039453 37.9,17.039453 37.9,17.039453 c -0.0016,-0.01953 -0.0016,-0.01953 -0.0016,-0.01953 -0.0016,-0.01953 -0.0016,-0.01953 -0.0016,-0.01953 -0.0023,-0.01953 -0.0023,-0.01953 -0.0023,-0.01953 -0.0023,-0.01914 -0.0023,-0.01914 -0.0023,-0.01914 -0.0027,-0.01953 -0.0027,-0.01953 -0.0027,-0.01953 -0.0035,-0.01953 -0.0035,-0.01953 -0.0035,-0.01953 -0.0035,-0.01914 -0.0035,-0.01914 -0.0035,-0.01914 -0.05703,-0.187891 -0.05703,-0.187891 -0.05703,-0.187891 -0.09258,-0.172656 -0.09258,-0.172656 -0.09258,-0.172656 -0.124219,-0.151563 -0.124219,-0.151563 -0.124219,-0.151563 -0.151563,-0.124218 -0.151563,-0.124218 -0.151563,-0.124218 -0.172656,-0.09258 -0.172656,-0.09258 -0.172656,-0.09258 -0.187891,-0.05703 -0.187891,-0.05703 -0.187891,-0.05703 -0.194921,-0.01914 -0.194921,-0.01914 -0.194921,-0.01914 H 25.279297 a 1,1 45 0 1 -1,-1 V 4.0976562 c 0,-0.5522847 0.0029,-1.126193 -0.02812,-1.2765624 C 24.170703,2.5632813 24.170703,2.5632813 24.170703,2.5632813 24.042969,2.3296875 24.042969,2.3296875 24.042969,2.3296875 23.874609,2.1253906 23.874609,2.1253906 23.874609,2.1253906 23.670313,1.9570312 23.670313,1.9570312 23.670313,1.9570312 23.436719,1.8292969 23.436719,1.8292969 23.436719,1.8292969 23.178906,1.7488281 23.178906,1.7488281 23.178906,1.7488281 22.902344,1.7207031 22.902344,1.7207031 22.902344,1.7207031 l -4.804688,0 c -0.552285,0 -1.126201,-0.00291 -1.276562,0.028125 z"
       inkscape:path-effect="#path-effect23"
       inkscape:original-d="M 17.097656 1.7207031 C 17.003086 1.7207031 16.910462 1.7303831 16.821094 1.7488281 C 16.731724 1.7672701 16.645557 1.7943049 16.563281 1.8292969 C 16.481001 1.8642888 16.402978 1.907381 16.329688 1.9570312 C 16.256398 2.0066822 16.187808 2.0629733 16.125391 2.1253906 C 16.062971 2.1878086 16.006682 2.2563951 15.957031 2.3296875 C 15.907381 2.4029804 15.864291 2.4810051 15.829297 2.5632813 C 15.794307 2.6455572 15.767268 2.7317258 15.748828 2.8210938 C 15.730388 2.9104617 15.720703 3.0030882 15.720703 3.0976562 L 15.720703 16.098437 L 3.0984375 16.098437 A 1 1 0 0 0 2.5984375 16.232422 A 1 1 0 0 0 2.2324219 16.598437 A 1 1 0 0 0 2.0984375 17.098437 L 2.0984375 22.901563 A 1 1 0 0 0 2.2324219 23.401563 A 1 1 0 0 0 2.5984375 23.767578 A 1 1 0 0 0 3.0984375 23.901563 L 15.720703 23.901563 L 15.720703 36.902344 C 15.720703 36.996914 15.730408 37.089538 15.748828 37.178906 C 15.767268 37.268276 15.794307 37.354443 15.829297 37.436719 C 15.864287 37.518999 15.907377 37.59702 15.957031 37.670313 C 16.006681 37.743602 16.062973 37.812192 16.125391 37.874609 C 16.187811 37.937029 16.256395 37.993318 16.329688 38.042969 C 16.402977 38.092619 16.481005 38.135709 16.563281 38.170703 C 16.645561 38.205693 16.731726 38.232732 16.821094 38.251172 C 16.910464 38.269612 17.003088 38.279297 17.097656 38.279297 L 22.902344 38.279297 C 22.996914 38.279297 23.089538 38.269602 23.178906 38.251172 C 23.268276 38.232732 23.354443 38.205693 23.436719 38.170703 C 23.518999 38.135713 23.59702 38.092623 23.670313 38.042969 C 23.743602 37.993319 23.812192 37.937027 23.874609 37.874609 C 23.937029 37.812189 23.993318 37.743603 24.042969 37.670313 C 24.092619 37.597023 24.135709 37.518995 24.170703 37.436719 C 24.205693 37.354439 24.232732 37.268274 24.251172 37.178906 C 24.269612 37.089536 24.279297 36.996912 24.279297 36.902344 L 24.279297 23.901563 L 36.901563 23.901563 A 1 1 0 0 0 37.401563 23.767578 A 1 1 0 0 0 37.767578 23.401563 A 1 1 0 0 0 37.901563 22.901563 L 37.901563 17.098437 A 1 1 0 0 0 37.901563 17.078906 A 1 1 0 0 0 37.900781 17.059375 A 1 1 0 0 0 37.9 17.039453 A 1 1 0 0 0 37.898438 17.019922 A 1 1 0 0 0 37.896875 17.000391 A 1 1 0 0 0 37.894531 16.980859 A 1 1 0 0 0 37.892187 16.961719 A 1 1 0 0 0 37.889453 16.942187 A 1 1 0 0 0 37.885938 16.922656 A 1 1 0 0 0 37.882422 16.903516 A 1 1 0 0 0 37.825391 16.715625 A 1 1 0 0 0 37.732813 16.542969 A 1 1 0 0 0 37.608594 16.391406 A 1 1 0 0 0 37.457031 16.267188 A 1 1 0 0 0 37.284375 16.174609 A 1 1 0 0 0 37.096484 16.117578 A 1 1 0 0 0 36.901563 16.098437 L 24.279297 16.098437 L 24.279297 3.0976562 C 24.279297 3.0030883 24.269592 2.9104615 24.251172 2.8210938 C 24.232712 2.7317258 24.205693 2.6455572 24.170703 2.5632813 C 24.135696 2.4810051 24.092619 2.4029799 24.042969 2.3296875 C 23.993318 2.2563951 23.937027 2.1878081 23.874609 2.1253906 C 23.812192 2.0629733 23.743603 2.0066819 23.670313 1.9570312 C 23.59702 1.9073808 23.518995 1.8642888 23.436719 1.8292969 C 23.354443 1.7943048 23.268274 1.76727 23.178906 1.7488281 C 23.089538 1.7303862 22.996912 1.7207031 22.902344 1.7207031 L 17.097656 1.7207031 z " />
  </g>
</svg>
